<svg xmlns="http://www.w3.org/2000/svg" xmlns:xlink="http://www.w3.org/1999/xlink" style="display:none">
<!--
  Mandarin UI Icon Set
  Civic Sanctuary aesthetic: line-art, no fill, sharp corners (radius: 0)
  All icons: viewBox="0 0 24 24", stroke="currentColor", stroke-width="1.5",
             fill="none", stroke-linecap="round", stroke-linejoin="round"
-->


<!-- ═══════════════════════════════════════════════════════════
     NAVIGATION
     ═══════════════════════════════════════════════════════════ -->

<!-- Home: dashboard / main view -->
<symbol id="icon-home" viewBox="0 0 24 24">
  <path stroke="currentColor" stroke-width="1.5" fill="none"
        stroke-linecap="round" stroke-linejoin="round"
        d="M3 10.5L12 3l9 7.5V20a1 1 0 0 1-1 1H4a1 1 0 0 1-1-1z"/>
  <path stroke="currentColor" stroke-width="1.5" fill="none"
        stroke-linecap="round" stroke-linejoin="round"
        d="M9 21V14h6v7"/>
</symbol>

<!-- Back: left arrow for navigation -->
<symbol id="icon-back" viewBox="0 0 24 24">
  <path stroke="currentColor" stroke-width="1.5" fill="none"
        stroke-linecap="round" stroke-linejoin="round"
        d="M15 19l-7-7 7-7"/>
</symbol>

<!-- Settings: gear -->
<symbol id="icon-settings" viewBox="0 0 24 24">
  <path stroke="currentColor" stroke-width="1.5" fill="none"
        stroke-linecap="round" stroke-linejoin="round"
        d="M12 15a3 3 0 1 0 0-6 3 3 0 0 0 0 6z"/>
  <path stroke="currentColor" stroke-width="1.5" fill="none"
        stroke-linecap="round" stroke-linejoin="round"
        d="M19.4 15a1.65 1.65 0 0 0 .33 1.82l.06.06a2 2 0 1 1-2.83 2.83l-.06-.06a1.65 1.65 0 0 0-1.82-.33 1.65 1.65 0 0 0-1 1.51V21a2 2 0 0 1-4 0v-.09A1.65 1.65 0 0 0 9 19.4a1.65 1.65 0 0 0-1.82.33l-.06.06a2 2 0 1 1-2.83-2.83l.06-.06A1.65 1.65 0 0 0 4.68 15a1.65 1.65 0 0 0-1.51-1H3a2 2 0 0 1 0-4h.09A1.65 1.65 0 0 0 4.6 9a1.65 1.65 0 0 0-.33-1.82l-.06-.06a2 2 0 1 1 2.83-2.83l.06.06A1.65 1.65 0 0 0 9 4.68a1.65 1.65 0 0 0 1-1.51V3a2 2 0 0 1 4 0v.09a1.65 1.65 0 0 0 1 1.51 1.65 1.65 0 0 0 1.82-.33l.06-.06a2 2 0 1 1 2.83 2.83l-.06.06A1.65 1.65 0 0 0 19.4 9a1.65 1.65 0 0 0 1.51 1H21a2 2 0 0 1 0 4h-.09a1.65 1.65 0 0 0-1.51 1z"/>
</symbol>

<!-- Menu: three horizontal lines -->
<symbol id="icon-menu" viewBox="0 0 24 24">
  <line stroke="currentColor" stroke-width="1.5" fill="none"
        stroke-linecap="round" stroke-linejoin="round"
        x1="3" y1="6" x2="21" y2="6"/>
  <line stroke="currentColor" stroke-width="1.5" fill="none"
        stroke-linecap="round" stroke-linejoin="round"
        x1="3" y1="12" x2="21" y2="12"/>
  <line stroke="currentColor" stroke-width="1.5" fill="none"
        stroke-linecap="round" stroke-linejoin="round"
        x1="3" y1="18" x2="21" y2="18"/>
</symbol>


<!-- ═══════════════════════════════════════════════════════════
     ACTIONS
     ═══════════════════════════════════════════════════════════ -->

<!-- Play: triangle pointing right -->
<symbol id="icon-play" viewBox="0 0 24 24">
  <polygon stroke="currentColor" stroke-width="1.5" fill="none"
           stroke-linecap="round" stroke-linejoin="round"
           points="6,3 20,12 6,21"/>
</symbol>

<!-- Pause: two vertical bars -->
<symbol id="icon-pause" viewBox="0 0 24 24">
  <line stroke="currentColor" stroke-width="1.5" fill="none"
        stroke-linecap="round" stroke-linejoin="round"
        x1="8" y1="4" x2="8" y2="20"/>
  <line stroke="currentColor" stroke-width="1.5" fill="none"
        stroke-linecap="round" stroke-linejoin="round"
        x1="16" y1="4" x2="16" y2="20"/>
</symbol>

<!-- Stop: square -->
<symbol id="icon-stop" viewBox="0 0 24 24">
  <rect stroke="currentColor" stroke-width="1.5" fill="none"
        stroke-linecap="round" stroke-linejoin="round"
        x="5" y="5" width="14" height="14"/>
</symbol>

<!-- Refresh: rotating arrows -->
<symbol id="icon-refresh" viewBox="0 0 24 24">
  <polyline stroke="currentColor" stroke-width="1.5" fill="none"
            stroke-linecap="round" stroke-linejoin="round"
            points="1,4 1,10 7,10"/>
  <polyline stroke="currentColor" stroke-width="1.5" fill="none"
            stroke-linecap="round" stroke-linejoin="round"
            points="23,20 23,14 17,14"/>
  <path stroke="currentColor" stroke-width="1.5" fill="none"
        stroke-linecap="round" stroke-linejoin="round"
        d="M3.51 9a9 9 0 0 1 14.85-3.36L23 10M1 14l4.64 4.36A9 9 0 0 0 20.49 15"/>
</symbol>

<!-- Close: X mark -->
<symbol id="icon-close" viewBox="0 0 24 24">
  <line stroke="currentColor" stroke-width="1.5" fill="none"
        stroke-linecap="round" stroke-linejoin="round"
        x1="18" y1="6" x2="6" y2="18"/>
  <line stroke="currentColor" stroke-width="1.5" fill="none"
        stroke-linecap="round" stroke-linejoin="round"
        x1="6" y1="6" x2="18" y2="18"/>
</symbol>

<!-- Check: checkmark -->
<symbol id="icon-check" viewBox="0 0 24 24">
  <polyline stroke="currentColor" stroke-width="1.5" fill="none"
            stroke-linecap="round" stroke-linejoin="round"
            points="4,12 9,17 20,6"/>
</symbol>

<!-- X-mark: X inside a frame (distinct from close) -->
<symbol id="icon-x-mark" viewBox="0 0 24 24">
  <rect stroke="currentColor" stroke-width="1.5" fill="none"
        stroke-linecap="round" stroke-linejoin="round"
        x="3" y="3" width="18" height="18"/>
  <line stroke="currentColor" stroke-width="1.5" fill="none"
        stroke-linecap="round" stroke-linejoin="round"
        x1="9" y1="9" x2="15" y2="15"/>
  <line stroke="currentColor" stroke-width="1.5" fill="none"
        stroke-linecap="round" stroke-linejoin="round"
        x1="15" y1="9" x2="9" y2="15"/>
</symbol>


<!-- ═══════════════════════════════════════════════════════════
     LEARNING
     ═══════════════════════════════════════════════════════════ -->

<!-- Book: open book for reading -->
<symbol id="icon-book" viewBox="0 0 24 24">
  <path stroke="currentColor" stroke-width="1.5" fill="none"
        stroke-linecap="round" stroke-linejoin="round"
        d="M2 3h6a4 4 0 0 1 4 4v14a3 3 0 0 0-3-3H2z"/>
  <path stroke="currentColor" stroke-width="1.5" fill="none"
        stroke-linecap="round" stroke-linejoin="round"
        d="M22 3h-6a4 4 0 0 0-4 4v14a3 3 0 0 1 3-3h7z"/>
</symbol>

<!-- Headphones: listening practice -->
<symbol id="icon-headphones" viewBox="0 0 24 24">
  <path stroke="currentColor" stroke-width="1.5" fill="none"
        stroke-linecap="round" stroke-linejoin="round"
        d="M3 18v-6a9 9 0 0 1 18 0v6"/>
  <path stroke="currentColor" stroke-width="1.5" fill="none"
        stroke-linecap="round" stroke-linejoin="round"
        d="M21 19a2 2 0 0 1-2 2h-1a2 2 0 0 1-2-2v-3a2 2 0 0 1 2-2h3zM3 19a2 2 0 0 0 2 2h1a2 2 0 0 0 2-2v-3a2 2 0 0 0-2-2H3z"/>
</symbol>

<!-- Microphone: speaking / recording -->
<symbol id="icon-microphone" viewBox="0 0 24 24">
  <rect stroke="currentColor" stroke-width="1.5" fill="none"
        stroke-linecap="round" stroke-linejoin="round"
        x="9" y="2" width="6" height="11" rx="3"/>
  <path stroke="currentColor" stroke-width="1.5" fill="none"
        stroke-linecap="round" stroke-linejoin="round"
        d="M19 10v1a7 7 0 0 1-14 0v-1"/>
  <line stroke="currentColor" stroke-width="1.5" fill="none"
        stroke-linecap="round" stroke-linejoin="round"
        x1="12" y1="18" x2="12" y2="22"/>
  <line stroke="currentColor" stroke-width="1.5" fill="none"
        stroke-linecap="round" stroke-linejoin="round"
        x1="8" y1="22" x2="16" y2="22"/>
</symbol>

<!-- Pencil: writing / editing -->
<symbol id="icon-pencil" viewBox="0 0 24 24">
  <path stroke="currentColor" stroke-width="1.5" fill="none"
        stroke-linecap="round" stroke-linejoin="round"
        d="M17 3a2.83 2.83 0 0 1 4 4L7.5 20.5 2 22l1.5-5.5z"/>
  <line stroke="currentColor" stroke-width="1.5" fill="none"
        stroke-linecap="round" stroke-linejoin="round"
        x1="15" y1="5" x2="19" y2="9"/>
</symbol>

<!-- Eye: review / visibility -->
<symbol id="icon-eye" viewBox="0 0 24 24">
  <path stroke="currentColor" stroke-width="1.5" fill="none"
        stroke-linecap="round" stroke-linejoin="round"
        d="M1 12s4-8 11-8 11 8 11 8-4 8-11 8S1 12 1 12z"/>
  <circle stroke="currentColor" stroke-width="1.5" fill="none"
          cx="12" cy="12" r="3"/>
</symbol>

<!-- Lightbulb: hints / insights -->
<symbol id="icon-lightbulb" viewBox="0 0 24 24">
  <path stroke="currentColor" stroke-width="1.5" fill="none"
        stroke-linecap="round" stroke-linejoin="round"
        d="M9 18h6M10 22h4"/>
  <path stroke="currentColor" stroke-width="1.5" fill="none"
        stroke-linecap="round" stroke-linejoin="round"
        d="M12 2a7 7 0 0 0-4 12.7V17h8v-2.3A7 7 0 0 0 12 2z"/>
</symbol>


<!-- ═══════════════════════════════════════════════════════════
     STATUS
     ═══════════════════════════════════════════════════════════ -->

<!-- Star: mastery / favorites -->
<symbol id="icon-star" viewBox="0 0 24 24">
  <polygon stroke="currentColor" stroke-width="1.5" fill="none"
           stroke-linecap="round" stroke-linejoin="round"
           points="12,2 15.09,8.26 22,9.27 17,14.14 18.18,21.02 12,17.77 5.82,21.02 7,14.14 2,9.27 8.91,8.26"/>
</symbol>

<!-- Streak fire: consecutive day streaks -->
<symbol id="icon-streak-fire" viewBox="0 0 24 24">
  <path stroke="currentColor" stroke-width="1.5" fill="none"
        stroke-linecap="round" stroke-linejoin="round"
        d="M12 22c4.97 0 8-3.58 8-8.5 0-4.33-2.5-7.5-5-9.5 0 2.5-1.5 4-3 5C10.5 5.5 10 2 10 2 7 5 4 8.5 4 13.5 4 18.42 7.03 22 12 22z"/>
  <path stroke="currentColor" stroke-width="1.5" fill="none"
        stroke-linecap="round" stroke-linejoin="round"
        d="M12 22c2.21 0 4-1.79 4-4 0-1.95-1-3.5-2-4.5-.5 1-1.5 1.5-2 2-.33-1-.67-2.5-1-3.5-1.5 1.5-3 3.5-3 6 0 2.21 1.79 4 4 4z"/>
</symbol>

<!-- Clock: time / duration -->
<symbol id="icon-clock" viewBox="0 0 24 24">
  <circle stroke="currentColor" stroke-width="1.5" fill="none"
          cx="12" cy="12" r="10"/>
  <polyline stroke="currentColor" stroke-width="1.5" fill="none"
            stroke-linecap="round" stroke-linejoin="round"
            points="12,6 12,12 16,14"/>
</symbol>

<!-- Calendar: schedule / dates -->
<symbol id="icon-calendar" viewBox="0 0 24 24">
  <rect stroke="currentColor" stroke-width="1.5" fill="none"
        stroke-linecap="round" stroke-linejoin="round"
        x="3" y="4" width="18" height="18"/>
  <line stroke="currentColor" stroke-width="1.5" fill="none"
        stroke-linecap="round" stroke-linejoin="round"
        x1="16" y1="2" x2="16" y2="6"/>
  <line stroke="currentColor" stroke-width="1.5" fill="none"
        stroke-linecap="round" stroke-linejoin="round"
        x1="8" y1="2" x2="8" y2="6"/>
  <line stroke="currentColor" stroke-width="1.5" fill="none"
        stroke-linecap="round" stroke-linejoin="round"
        x1="3" y1="10" x2="21" y2="10"/>
</symbol>

<!-- Chart up: positive trend / improvement -->
<symbol id="icon-chart-up" viewBox="0 0 24 24">
  <polyline stroke="currentColor" stroke-width="1.5" fill="none"
            stroke-linecap="round" stroke-linejoin="round"
            points="22,7 13.5,15.5 8.5,10.5 2,17"/>
  <polyline stroke="currentColor" stroke-width="1.5" fill="none"
            stroke-linecap="round" stroke-linejoin="round"
            points="16,7 22,7 22,13"/>
</symbol>

<!-- Chart down: negative trend / decline -->
<symbol id="icon-chart-down" viewBox="0 0 24 24">
  <polyline stroke="currentColor" stroke-width="1.5" fill="none"
            stroke-linecap="round" stroke-linejoin="round"
            points="22,17 13.5,8.5 8.5,13.5 2,7"/>
  <polyline stroke="currentColor" stroke-width="1.5" fill="none"
            stroke-linecap="round" stroke-linejoin="round"
            points="16,17 22,17 22,11"/>
</symbol>


<!-- ═══════════════════════════════════════════════════════════
     MEDIA
     ═══════════════════════════════════════════════════════════ -->

<!-- Volume on: audio enabled -->
<symbol id="icon-volume-on" viewBox="0 0 24 24">
  <polygon stroke="currentColor" stroke-width="1.5" fill="none"
           stroke-linecap="round" stroke-linejoin="round"
           points="11,5 6,9 2,9 2,15 6,15 11,19"/>
  <path stroke="currentColor" stroke-width="1.5" fill="none"
        stroke-linecap="round" stroke-linejoin="round"
        d="M19.07 4.93a10 10 0 0 1 0 14.14M15.54 8.46a5 5 0 0 1 0 7.07"/>
</symbol>

<!-- Volume off: audio muted -->
<symbol id="icon-volume-off" viewBox="0 0 24 24">
  <polygon stroke="currentColor" stroke-width="1.5" fill="none"
           stroke-linecap="round" stroke-linejoin="round"
           points="11,5 6,9 2,9 2,15 6,15 11,19"/>
  <line stroke="currentColor" stroke-width="1.5" fill="none"
        stroke-linecap="round" stroke-linejoin="round"
        x1="23" y1="9" x2="17" y2="15"/>
  <line stroke="currentColor" stroke-width="1.5" fill="none"
        stroke-linecap="round" stroke-linejoin="round"
        x1="17" y1="9" x2="23" y2="15"/>
</symbol>

<!-- Speed: playback rate control -->
<symbol id="icon-speed" viewBox="0 0 24 24">
  <path stroke="currentColor" stroke-width="1.5" fill="none"
        stroke-linecap="round" stroke-linejoin="round"
        d="M12 22c5.52 0 10-4.48 10-10H2c0 5.52 4.48 10 10 10z"/>
  <path stroke="currentColor" stroke-width="1.5" fill="none"
        stroke-linecap="round" stroke-linejoin="round"
        d="M12 6v6l4 2"/>
  <line stroke="currentColor" stroke-width="1.5" fill="none"
        stroke-linecap="round" stroke-linejoin="round"
        x1="2" y1="12" x2="4" y2="12"/>
  <line stroke="currentColor" stroke-width="1.5" fill="none"
        stroke-linecap="round" stroke-linejoin="round"
        x1="20" y1="12" x2="22" y2="12"/>
  <line stroke="currentColor" stroke-width="1.5" fill="none"
        stroke-linecap="round" stroke-linejoin="round"
        x1="12" y1="2" x2="12" y2="4"/>
  <line stroke="currentColor" stroke-width="1.5" fill="none"
        stroke-linecap="round" stroke-linejoin="round"
        x1="4.93" y1="4.93" x2="6.34" y2="6.34"/>
  <line stroke="currentColor" stroke-width="1.5" fill="none"
        stroke-linecap="round" stroke-linejoin="round"
        x1="17.66" y1="6.34" x2="19.07" y2="4.93"/>
</symbol>

<!-- Skip forward: advance -->
<symbol id="icon-skip-forward" viewBox="0 0 24 24">
  <polygon stroke="currentColor" stroke-width="1.5" fill="none"
           stroke-linecap="round" stroke-linejoin="round"
           points="5,4 15,12 5,20"/>
  <line stroke="currentColor" stroke-width="1.5" fill="none"
        stroke-linecap="round" stroke-linejoin="round"
        x1="19" y1="5" x2="19" y2="19"/>
</symbol>

<!-- Skip back: rewind -->
<symbol id="icon-skip-back" viewBox="0 0 24 24">
  <polygon stroke="currentColor" stroke-width="1.5" fill="none"
           stroke-linecap="round" stroke-linejoin="round"
           points="19,20 9,12 19,4"/>
  <line stroke="currentColor" stroke-width="1.5" fill="none"
        stroke-linecap="round" stroke-linejoin="round"
        x1="5" y1="19" x2="5" y2="5"/>
</symbol>


<!-- ═══════════════════════════════════════════════════════════
     UTILITY
     ═══════════════════════════════════════════════════════════ -->

<!-- Download: save / export -->
<symbol id="icon-download" viewBox="0 0 24 24">
  <path stroke="currentColor" stroke-width="1.5" fill="none"
        stroke-linecap="round" stroke-linejoin="round"
        d="M21 15v4a2 2 0 0 1-2 2H5a2 2 0 0 1-2-2v-4"/>
  <polyline stroke="currentColor" stroke-width="1.5" fill="none"
            stroke-linecap="round" stroke-linejoin="round"
            points="7,10 12,15 17,10"/>
  <line stroke="currentColor" stroke-width="1.5" fill="none"
        stroke-linecap="round" stroke-linejoin="round"
        x1="12" y1="15" x2="12" y2="3"/>
</symbol>

<!-- Share: share / send -->
<symbol id="icon-share" viewBox="0 0 24 24">
  <circle stroke="currentColor" stroke-width="1.5" fill="none"
          cx="18" cy="5" r="3"/>
  <circle stroke="currentColor" stroke-width="1.5" fill="none"
          cx="6" cy="12" r="3"/>
  <circle stroke="currentColor" stroke-width="1.5" fill="none"
          cx="18" cy="19" r="3"/>
  <line stroke="currentColor" stroke-width="1.5" fill="none"
        stroke-linecap="round" stroke-linejoin="round"
        x1="8.59" y1="13.51" x2="15.42" y2="17.49"/>
  <line stroke="currentColor" stroke-width="1.5" fill="none"
        stroke-linecap="round" stroke-linejoin="round"
        x1="15.41" y1="6.51" x2="8.59" y2="10.49"/>
</symbol>

<!-- Copy: duplicate / clipboard -->
<symbol id="icon-copy" viewBox="0 0 24 24">
  <rect stroke="currentColor" stroke-width="1.5" fill="none"
        stroke-linecap="round" stroke-linejoin="round"
        x="9" y="9" width="13" height="13"/>
  <path stroke="currentColor" stroke-width="1.5" fill="none"
        stroke-linecap="round" stroke-linejoin="round"
        d="M5 15H4a2 2 0 0 1-2-2V4a2 2 0 0 1 2-2h9a2 2 0 0 1 2 2v1"/>
</symbol>

<!-- External link: open in new tab -->
<symbol id="icon-external-link" viewBox="0 0 24 24">
  <path stroke="currentColor" stroke-width="1.5" fill="none"
        stroke-linecap="round" stroke-linejoin="round"
        d="M18 13v6a2 2 0 0 1-2 2H5a2 2 0 0 1-2-2V8a2 2 0 0 1 2-2h6"/>
  <polyline stroke="currentColor" stroke-width="1.5" fill="none"
            stroke-linecap="round" stroke-linejoin="round"
            points="15,3 21,3 21,9"/>
  <line stroke="currentColor" stroke-width="1.5" fill="none"
        stroke-linecap="round" stroke-linejoin="round"
        x1="10" y1="14" x2="21" y2="3"/>
</symbol>

<!-- Search: magnifying glass -->
<symbol id="icon-search" viewBox="0 0 24 24">
  <circle stroke="currentColor" stroke-width="1.5" fill="none"
          cx="11" cy="11" r="8"/>
  <line stroke="currentColor" stroke-width="1.5" fill="none"
        stroke-linecap="round" stroke-linejoin="round"
        x1="21" y1="21" x2="16.65" y2="16.65"/>
</symbol>

<!-- Filter: funnel -->
<symbol id="icon-filter" viewBox="0 0 24 24">
  <polygon stroke="currentColor" stroke-width="1.5" fill="none"
           stroke-linecap="round" stroke-linejoin="round"
           points="22,3 2,3 10,12.46 10,19 14,21 14,12.46"/>
</symbol>


<!-- ═══════════════════════════════════════════════════════════
     APP-SPECIFIC (derived from inline SVGs found in codebase)
     ═══════════════════════════════════════════════════════════ -->

<!-- Arrow right: submit answer (used in input-row button) -->
<symbol id="icon-arrow-right" viewBox="0 0 24 24">
  <line stroke="currentColor" stroke-width="1.5" fill="none"
        stroke-linecap="round" stroke-linejoin="round"
        x1="5" y1="12" x2="19" y2="12"/>
  <polyline stroke="currentColor" stroke-width="1.5" fill="none"
            stroke-linecap="round" stroke-linejoin="round"
            points="13,6 19,12 13,18"/>
</symbol>

<!-- Arrow left: back navigation (used in reading/media/listening back buttons) -->
<symbol id="icon-arrow-left" viewBox="0 0 24 24">
  <line stroke="currentColor" stroke-width="1.5" fill="none"
        stroke-linecap="round" stroke-linejoin="round"
        x1="19" y1="12" x2="5" y2="12"/>
  <polyline stroke="currentColor" stroke-width="1.5" fill="none"
            stroke-linecap="round" stroke-linejoin="round"
            points="11,18 5,12 11,6"/>
</symbol>

<!-- Plus: expand panel / add -->
<symbol id="icon-plus" viewBox="0 0 24 24">
  <line stroke="currentColor" stroke-width="1.5" fill="none"
        stroke-linecap="round" stroke-linejoin="round"
        x1="12" y1="5" x2="12" y2="19"/>
  <line stroke="currentColor" stroke-width="1.5" fill="none"
        stroke-linecap="round" stroke-linejoin="round"
        x1="5" y1="12" x2="19" y2="12"/>
</symbol>

<!-- Minus: collapse panel -->
<symbol id="icon-minus" viewBox="0 0 24 24">
  <line stroke="currentColor" stroke-width="1.5" fill="none"
        stroke-linecap="round" stroke-linejoin="round"
        x1="5" y1="12" x2="19" y2="12"/>
</symbol>

<!-- Sound toggle: used for session sound on/off -->
<symbol id="icon-sound-toggle" viewBox="0 0 24 24">
  <polygon stroke="currentColor" stroke-width="1.5" fill="none"
           stroke-linecap="round" stroke-linejoin="round"
           points="11,5 6,9 2,9 2,15 6,15 11,19"/>
  <path stroke="currentColor" stroke-width="1.5" fill="none"
        stroke-linecap="round" stroke-linejoin="round"
        d="M15.54 8.46a5 5 0 0 1 0 7.07"/>
</symbol>

<!-- Sparkline: inline trend indicator (corresponds to makeSparkline in app.js) -->
<symbol id="icon-sparkline" viewBox="0 0 24 24">
  <polyline stroke="currentColor" stroke-width="1.5" fill="none"
            stroke-linecap="round" stroke-linejoin="round"
            points="2,18 6,14 10,16 14,8 18,10 22,4"/>
</symbol>

<!-- Horizon line: decorative divider (used throughout the app) -->
<symbol id="icon-horizon" viewBox="0 0 24 24">
  <line stroke="currentColor" stroke-width="1.5" fill="none"
        stroke-linecap="round" stroke-linejoin="round"
        x1="2" y1="12" x2="22" y2="12"/>
  <path stroke="currentColor" stroke-width="0.75" fill="none"
        stroke-linecap="round" stroke-linejoin="round"
        d="M14 8l2-2 2 2"/>
</symbol>

<!-- Feedback: message / comment bubble -->
<symbol id="icon-feedback" viewBox="0 0 24 24">
  <path stroke="currentColor" stroke-width="1.5" fill="none"
        stroke-linecap="round" stroke-linejoin="round"
        d="M21 15a2 2 0 0 1-2 2H7l-4 4V5a2 2 0 0 1 2-2h14a2 2 0 0 1 2 2z"/>
</symbol>

<!-- Export: file with arrow (for CSV export) -->
<symbol id="icon-export" viewBox="0 0 24 24">
  <path stroke="currentColor" stroke-width="1.5" fill="none"
        stroke-linecap="round" stroke-linejoin="round"
        d="M14 2H6a2 2 0 0 0-2 2v16a2 2 0 0 0 2 2h12a2 2 0 0 0 2-2V8z"/>
  <polyline stroke="currentColor" stroke-width="1.5" fill="none"
            stroke-linecap="round" stroke-linejoin="round"
            points="14,2 14,8 20,8"/>
  <polyline stroke="currentColor" stroke-width="1.5" fill="none"
            stroke-linecap="round" stroke-linejoin="round"
            points="9,15 12,12 15,15"/>
  <line stroke="currentColor" stroke-width="1.5" fill="none"
        stroke-linecap="round" stroke-linejoin="round"
        x1="12" y1="12" x2="12" y2="19"/>
</symbol>

<!-- Invite / Person plus: referral -->
<symbol id="icon-invite" viewBox="0 0 24 24">
  <path stroke="currentColor" stroke-width="1.5" fill="none"
        stroke-linecap="round" stroke-linejoin="round"
        d="M16 21v-2a4 4 0 0 0-4-4H5a4 4 0 0 0-4 4v2"/>
  <circle stroke="currentColor" stroke-width="1.5" fill="none"
          cx="8.5" cy="7" r="4"/>
  <line stroke="currentColor" stroke-width="1.5" fill="none"
        stroke-linecap="round" stroke-linejoin="round"
        x1="20" y1="8" x2="20" y2="14"/>
  <line stroke="currentColor" stroke-width="1.5" fill="none"
        stroke-linecap="round" stroke-linejoin="round"
        x1="23" y1="11" x2="17" y2="11"/>
</symbol>

<!-- Progress: horizontal bar with partial fill (session progress) -->
<symbol id="icon-progress" viewBox="0 0 24 24">
  <rect stroke="currentColor" stroke-width="1.5" fill="none"
        stroke-linecap="round" stroke-linejoin="round"
        x="1" y="9" width="22" height="6"/>
  <line stroke="currentColor" stroke-width="1.5" fill="none"
        stroke-linecap="round" stroke-linejoin="round"
        x1="1" y1="12" x2="14" y2="12"/>
</symbol>

</svg>
